<?xml version="1.0" encoding="utf-8"?>
<svg version="1.1" xmlns:xlink="http://www.w3.org/1999/xlink" width="50px" height="41px" xmlns="http://www.w3.org/2000/svg">
  <g transform="matrix(1 0 0 1 -941 -1779 )">
    <path d="M 44.098984771573605 6.470312500000001  C 46.06598984771574 6.2567708333333325  48.03299492385787 5.72291666666666  50 4.868750000000001  C 48.58291032148901 6.961458333333329  46.86971235194586 8.74453125  44.86040609137056 10.217968750000002  C 44.88155668358714 10.516927083333332  44.892131979695435 10.96536458333333  44.892131979695435 11.563281249999998  C 44.892131979695435 14.339322916666662  44.49027072758038 17.110026041666664  43.68654822335025 19.875390624999998  C 42.882825719120135 22.64075520833333  41.66137901861252 25.294010416666666  40.02220812182741 27.83515625  C 38.3830372250423 30.376302083333332  36.43189509306261 32.623828124999996  34.16878172588832 34.577734375  C 31.905668358714045 36.531640625  29.177241962774957 38.09049479166667  25.98350253807107 39.254296875  C 22.789763113367176 40.41809895833333  19.373942470389174 41  15.736040609137056 41  C 10.004230118443317 41  4.758883248730964 39.45182291666667  0 36.35546875  C 0.7402707275803726 36.440885416666674  1.565143824027073 36.483593750000004  2.474619289340102 36.483593750000004  C 7.233502538071068 36.483593750000004  11.47419627749577 35.01015625  15.196700507614214 32.063281249999996  C 12.975888324873097 32.020572916666666  10.987732656514384 31.33190104166666  9.232233502538072 29.997265625  C 7.47673434856176 28.66263020833333  6.271150592216583 26.959635416666664  5.615482233502538 24.888281250000002  C 6.313451776649746 24.995052083333334  6.958544839255501 25.048437500000002  7.550761421319797 25.048437500000002  C 8.460236886632826 25.048437500000002  9.359137055837563 24.930989583333332  10.24746192893401 24.69609375  C 7.87859560067682 24.204947916666665  5.9168781725888335 23.014453125  4.362309644670051 21.124609375000002  C 2.807741116751269 19.234765624999998  2.030456852791879 17.040625000000002  2.030456852791878 14.542187500000002  L 2.030456852791878 14.4140625  C 3.468697123519459 15.225520833333333  5.012690355329949 15.663281249999997  6.662436548223351 15.727343749999998  C 5.2664974619289335 14.787760416666664  4.156091370558376 13.559895833333332  3.3312182741116754 12.043749999999998  C 2.5063451776649743 10.52760416666666  2.0939086294416245 8.88333333333333  2.0939086294416245 7.110937500000001  C 2.0939086294416245 5.231770833333332  2.55922165820643 3.4914062500000016  3.489847715736041 1.8898437500000018  C 6.049069373942471 5.071614583333332  9.16349407783418 7.6180989583333325  12.833121827411167 9.529296875  C 16.50274957698816 11.440494791666667  20.431472081218274 12.502864583333333  24.61928934010152 12.71640625  C 24.450084602368868 11.904947916666664  24.36548223350254 11.114843749999997  24.36548223350254 10.34609375  C 24.36548223350254 7.48463541666666  25.36484771573604 5.044921875  27.363578680203045 3.026953125000001  C 29.36230964467005 1.0089843750000018  31.778764805414557 0  34.61294416243655 0  C 37.57402707275804 0  40.06979695431472 1.0890625000000018  42.1002538071066 3.267187500000001  C 44.405668358714045 2.818749999999999  46.5736040609137 1.9859375000000008  48.60406091370558 0.7687500000000018  C 47.82148900169205 3.224479166666661  46.31979695431473 5.125  44.098984771573605 6.470312500000001  Z " fill-rule="nonzero" fill="#020077" stroke="none" transform="matrix(1 0 0 1 941 1779 )" />
  </g>
</svg>