<?xml version="1.0" encoding="utf-8"?>
<svg version="1.1" xmlns:xlink="http://www.w3.org/1999/xlink" width="50px" height="50px" xmlns="http://www.w3.org/2000/svg">
  <g transform="matrix(1 0 0 1 -847 -1774 )">
    <path d="M 9.375 0  L 40.625 0  C 43.207465277777786 0  45.41558159722223 0.9168836805555525  47.24934895833333 2.7506510416666687  C 49.08311631944444 4.584418402777773  50 6.792534722222215  50 9.375  L 50 40.625  C 50 43.20746527777777  49.08311631944444 45.41558159722223  47.24934895833333 47.24934895833333  C 45.41558159722223 49.08311631944444  43.207465277777786 50  40.625 50  L 34 50  L 34 30.631510416666664  L 40.98307291666667 30.631510416666664  L 41.95963541666667 23.079427083333332  L 34.50520833333333 23.079427083333332  L 34.50520833333333 18.26171875  C 34.50520833333333 17.046440972222214  34.760199652777786 16.134982638888886  35.27018229166667 15.52734375  C 35.78016493055556 14.91970486111111  36.77300347222223 14.615885416666668  38.24869791666667 14.615885416666668  L 42.22005208333333 14.583333333333332  L 42.22005208333333 7.845052083333331  C 40.85286458333333 7.649739583333331  38.92144097222223 7.552083333333331  36.42578125 7.552083333333331  C 33.474392361111114 7.552083333333331  31.114366319444446 8.420138888888884  29.345703125 10.15625  C 27.577039930555557 11.89236111111111  26.692708333333332 14.344618055555552  26.692708333333332 17.513020833333332  L 26.692708333333332 23.079427083333332  L 20.182291666666664 23.079427083333332  L 20.182291666666664 30.631510416666664  L 26 30.631510416666664  L 26 50  L 9.375 50  C 6.792534722222222 50  4.584418402777779 49.08311631944444  2.750651041666667 47.24934895833333  C 0.9168836805555555 45.41558159722223  0 43.20746527777777  0 40.625  L 0 9.375  C 0 6.792534722222215  0.9168836805555555 4.584418402777773  2.750651041666667 2.7506510416666687  C 4.584418402777779 0.9168836805555525  6.792534722222222 0  9.375 0  Z " fill-rule="nonzero" fill="#020077" stroke="none" transform="matrix(1 0 0 1 847 1774 )" />
  </g>
</svg>